<svg xmlns="http://www.w3.org/2000/svg" xmlns:xlink="http://www.w3.org/1999/xlink" width="32.916" height="32.917" viewBox="0 0 32.916 32.917"><defs><clipPath id="a"><path d="M91.726-43.678A16.458,16.458,0,0,1,75.268-27.221,16.459,16.459,0,0,1,58.81-43.678,16.459,16.459,0,0,1,75.268-60.137,16.459,16.459,0,0,1,91.726-43.678Z" transform="translate(-58.81 60.137)"/></clipPath><linearGradient id="b" x1="-1.508" y1="1.542" x2="-1.505" y2="1.542" gradientUnits="objectBoundingBox"><stop offset="0" stop-color="#f14895"/><stop offset="1" stop-color="#c91894"/></linearGradient></defs><g style="mix-blend-mode:luminosity;isolation:isolate"><g transform="translate(0 0)"><g transform="translate(0 0)" clip-path="url(#a)"><path d="M91.726-43.678A16.458,16.458,0,0,1,75.268-27.221,16.459,16.459,0,0,1,58.81-43.678,16.459,16.459,0,0,1,75.268-60.137,16.459,16.459,0,0,1,91.726-43.678" transform="translate(-58.81 60.137)" fill="url(#b)"/></g></g><path d="M81.027-35.9a34.2,34.2,0,0,0-1.5-5.485,10.313,10.313,0,0,1,1.574-.119,11.57,11.57,0,0,1,3.211.45A7.83,7.83,0,0,1,81.027-35.9ZM76.6-34.526a7.787,7.787,0,0,1-4.77-1.626A10.809,10.809,0,0,1,77.955-41l.008,0a32.479,32.479,0,0,1,1.654,5.87A7.761,7.761,0,0,1,76.6-34.526Zm-7.822-7.809,0-.194h.205a29.288,29.288,0,0,0,7.812-1.11c.211.411.412.83.6,1.247l-.26.079a12.507,12.507,0,0,0-6.389,5.152,7.772,7.772,0,0,1-1.97-5.176Zm4.462-7.054A50.823,50.823,0,0,1,76.1-44.934a29.576,29.576,0,0,1-7.07.942h-.077A7.843,7.843,0,0,1,73.237-49.39Zm3.359-.756a7.8,7.8,0,0,1,5.154,1.938,8.92,8.92,0,0,1-4.039,2.774,42.2,42.2,0,0,0-2.877-4.511A7.78,7.78,0,0,1,76.6-50.146Zm6.092,2.915a7.767,7.767,0,0,1,1.728,4.764,19.232,19.232,0,0,0-3.618-.35,14.706,14.706,0,0,0-1.783.1c-.051-.124-.1-.249-.156-.373-.157-.369-.326-.736-.5-1.1A10.656,10.656,0,0,0,82.689-47.231ZM76.6-51.595a9.263,9.263,0,0,0-9.258,9.247A9.262,9.262,0,0,0,76.6-33.1a9.262,9.262,0,0,0,9.259-9.246A9.264,9.264,0,0,0,76.6-51.595" transform="translate(-60.138 58.807)" fill="#fff"/></g></svg>