<svg xmlns="http://www.w3.org/2000/svg" xmlns:xlink="http://www.w3.org/1999/xlink" width="32.916" height="32.917" viewBox="0 0 32.916 32.917"><defs><clipPath id="a"><path d="M148.371-100.352a16.458,16.458,0,0,1-16.458,16.459,16.458,16.458,0,0,1-16.458-16.459,16.458,16.458,0,0,1,16.458-16.458A16.458,16.458,0,0,1,148.371-100.352Z" transform="translate(-115.455 116.81)"/></clipPath><linearGradient id="b" x1="-2.961" y1="2.996" x2="-2.958" y2="2.996" gradientUnits="objectBoundingBox"><stop offset="0" stop-color="#3cba64"/><stop offset="1" stop-color="#24b263"/></linearGradient></defs><g style="mix-blend-mode:luminosity;isolation:isolate"><g clip-path="url(#a)"><path d="M148.371-100.352a16.458,16.458,0,0,1-16.458,16.459,16.458,16.458,0,0,1-16.458-16.459,16.458,16.458,0,0,1,16.458-16.458,16.458,16.458,0,0,1,16.458,16.458" transform="translate(-115.455 116.81)" fill="url(#b)"/></g><path d="M129.819-93.112l.325.194a7.65,7.65,0,0,0,3.913,1.084,7.675,7.675,0,0,0,7.667-7.666,7.676,7.676,0,0,0-7.667-7.667,7.676,7.676,0,0,0-7.666,7.667,7.64,7.64,0,0,0,1.121,3.975l.2.326-.766,2.859Zm-5.4,3.3,1.372-5.12A9.426,9.426,0,0,1,124.6-99.5a9.464,9.464,0,0,1,9.453-9.453,9.465,9.465,0,0,1,9.454,9.453,9.465,9.465,0,0,1-9.454,9.453,9.438,9.438,0,0,1-4.493-1.146l-5.146,1.379" transform="translate(-116.851 115.586)" fill="#fff"/><path d="M138.509-97.239a1.589,1.589,0,0,0-1.353-.306c-.352.144-.576.695-.8.976a.338.338,0,0,1-.436.095,6.137,6.137,0,0,1-3.06-2.622.376.376,0,0,1,.047-.512,2.086,2.086,0,0,0,.557-.9,1.976,1.976,0,0,0-.25-1.068,2.525,2.525,0,0,0-.787-1.189,1.083,1.083,0,0,0-1.174.175,2.386,2.386,0,0,0-.826,1.888,2.679,2.679,0,0,0,.075.6,4.963,4.963,0,0,0,.574,1.325,10.5,10.5,0,0,0,.6.912,9.268,9.268,0,0,0,2.6,2.415,7.86,7.86,0,0,0,1.623.772,3.6,3.6,0,0,0,1.888.3,2.286,2.286,0,0,0,1.713-1.273,1.11,1.11,0,0,0,.08-.651c-.1-.448-.7-.714-1.067-.93" transform="translate(-118.55 115.068)" fill="#fff" fill-rule="evenodd"/></g></svg>