<svg xmlns="http://www.w3.org/2000/svg" xmlns:xlink="http://www.w3.org/1999/xlink" width="882.327" height="893.302" viewBox="0 0 882.327 893.302"><defs><clipPath id="a"><path d="M0-666.665H882.327v893.3H0Z" transform="translate(0 666.665)"/></clipPath><clipPath id="b"><path d="M170.388-405.2h124.54V-138.81H170.388Z" transform="translate(-170.388 405.198)"/></clipPath><clipPath id="c"><path d="M258.2-405.2h155.65V-138.81H258.2Z" transform="translate(-258.205 405.198)"/></clipPath><clipPath id="d"><path d="M386.024-408.042H537.966v291.89H386.024Z" transform="translate(-386.024 408.042)"/></clipPath><clipPath id="e"><path d="M415.675-254.106h40.142v30.438H415.675Z" transform="translate(-415.675 254.106)"/></clipPath><clipPath id="f"><path d="M415.675-254.107h16.088c0,19.779,8.507,30.44,24.056,30.44H439.731c-15.547,0-24.056-10.661-24.056-30.44" transform="translate(-415.675 254.107)"/></clipPath><clipPath id="h"><path d="M415.675-380.2h40.142v30.438H415.675Z" transform="translate(-415.675 380.202)"/></clipPath><clipPath id="i"><path d="M439.731-380.2h16.088c-15.548,0-24.056,10.645-24.056,30.438H415.675c0-19.794,8.509-30.438,24.056-30.438" transform="translate(-415.675 380.202)"/></clipPath><clipPath id="k"><path d="M433.851-206.682h41.628v4.181H433.851Z" transform="translate(-433.851 206.682)"/></clipPath><clipPath id="l"><path d="M459.391-206.682h16.088a76.5,76.5,0,0,1-25.54,4.181H433.851a76.494,76.494,0,0,0,25.54-4.181" transform="translate(-433.851 206.682)"/></clipPath><clipPath id="n"><path d="M473.569-253.83h26.817v41.485H473.569Z" transform="translate(-473.569 253.83)"/></clipPath><clipPath id="o"><path d="M484.3-253.83h16.088c0,16.369-3.706,30.453-10.729,41.485H473.569c7.023-11.032,10.729-25.116,10.729-41.485" transform="translate(-473.569 253.83)"/></clipPath><clipPath id="q"><path d="M433.851-408.042h79.385v67.357H433.851Z" transform="translate(-433.851 408.042)"/></clipPath><clipPath id="r"><path d="M433.851-408.042h16.088c39.241,0,63.3,25.5,63.3,67.357H497.147c0-41.855-24.054-67.357-63.3-67.357" transform="translate(-433.851 408.042)"/></clipPath><clipPath id="t"><path d="M473.569-222.87h36.077v6.464H473.569Z" transform="translate(-473.569 222.87)"/></clipPath><clipPath id="u"><path d="M473.569-222.87h16.088c4.442,4.952,11.465,6.464,19.988,6.464H493.559c-8.525,0-15.548-1.511-19.99-6.464" transform="translate(-473.569 222.87)"/></clipPath></defs><g clip-path="url(#a)"><g transform="translate(180.29 278.08)"><path d="M8.692,70.595c20.44,12.462,46.125,16.8,69.517,24.832,20.424,7.011,40.861,18.9,48.284,35.729H485.36c10.844-25.286,13.071-52.808,3.3-78.316C476.341,20.695,447.42-4.714,425.847-33.228c-39.385-52.056,4.385-117.367-59.836-156.8C325.356-215,264.355-213.25,225.826-186.021c-24.9,17.6-39.92,43.525-65.065,60.884C129.382-103.469,86.866-98.009,49.383-84.8-17.49-61.235-61.259,27.952,8.692,70.595" transform="translate(26.869 207.658)" fill="#02b8cd"/></g><g transform="translate(174.716 620.467)"><path d="M0,0H532.9" fill="none" stroke="#285daa" stroke-linecap="round" stroke-linejoin="round" stroke-miterlimit="10" stroke-width="2.667"/></g><g transform="translate(77.645 620.467)"><path d="M0,0H19.988" fill="none" stroke="#285daa" stroke-linecap="round" stroke-linejoin="round" stroke-miterlimit="10" stroke-width="2.667"/></g><g transform="translate(784.693 620.467)"><path d="M4.886,0H-15.1" transform="translate(15.104)" fill="none" stroke="#285daa" stroke-linecap="round" stroke-linejoin="round" stroke-miterlimit="10" stroke-width="2.667"/></g><g transform="translate(123.205 620.467)"><path d="M0,0H30.576" fill="none" stroke="#285daa" stroke-linecap="round" stroke-linejoin="round" stroke-miterlimit="10" stroke-width="2.667"/></g><g transform="translate(728.545 620.467)"><path d="M7.474,0H-23.1" transform="translate(23.104)" fill="none" stroke="#285daa" stroke-linecap="round" stroke-linejoin="round" stroke-miterlimit="10" stroke-width="2.667"/></g><g transform="translate(279.396 666.296)"><path d="M0,0H148.033" fill="none" stroke="#285daa" stroke-linecap="round" stroke-linejoin="round" stroke-miterlimit="10" stroke-width="2.667"/></g><g transform="translate(212.536 666.296)"><path d="M0,0H42.154" fill="none" stroke="#285daa" stroke-linecap="round" stroke-linejoin="round" stroke-miterlimit="10" stroke-width="2.667"/></g><g transform="translate(500.56 715.524)"><path d="M0,0H245.089" fill="none" stroke="#285daa" stroke-linecap="round" stroke-linejoin="round" stroke-miterlimit="10" stroke-width="2.667"/></g><g transform="translate(431.992 715.524)"><path d="M0,0H50.977" fill="none" stroke="#285daa" stroke-linecap="round" stroke-linejoin="round" stroke-miterlimit="10" stroke-width="2.667"/></g><g transform="translate(380.263 715.524)"><path d="M0,0H15.684" fill="none" stroke="#285daa" stroke-linecap="round" stroke-linejoin="round" stroke-miterlimit="10" stroke-width="2.667"/></g><g transform="translate(767.435 715.524)"><path d="M0,0H35.1" fill="none" stroke="#285daa" stroke-linecap="round" stroke-linejoin="round" stroke-miterlimit="10" stroke-width="2.667"/></g><g transform="translate(225.507 350.355)"><g clip-path="url(#b)"><path d="M200.038-293.3h16.088v116.447H200.038Z" transform="translate(-160.796 443.239)" fill="#e7d4ff"/><path d="M200.038-377.37h16.088v75.348H200.038Z" transform="translate(-160.796 414.658)" fill="#e7d4ff"/><g transform="translate(39.242 112.637)"><path d="M0,0H0Z" fill="#e7d4ff"/></g><path d="M241.991-321.138h16.087v37.3H241.991Z" transform="translate(-147.224 433.774)" fill="#e7d4ff"/><g transform="translate(0 0)"><path d="M26.508,0V37.288H-42.7v75.348H12.823v37.3H-42.7V266.388H-81.944V0Z" transform="translate(81.944)" fill="#fdfeff"/></g><path d="M252.331-405.2h16.087v37.288H252.331Z" transform="translate(-143.879 405.198)" fill="#e7d4ff"/><g transform="translate(0 0)"><path d="M0,0H0Z" fill="#e7d4ff"/></g></g></g><g transform="translate(341.732 350.355)"><g clip-path="url(#c)"><g transform="translate(39.243 205.88)"><path d="M2.079,0H18.168L9.659,60.507H-6.428Z" transform="translate(6.428)" fill="#e7d4ff"/></g><g transform="translate(52.943 57.083)"><path d="M3.888,0H19.976L4.07,112.267H-12.019Z" transform="translate(12.019)" fill="#e7d4ff"/></g><g transform="translate(52.944 169.349)"><path d="M0,0H0Z" fill="#e7d4ff"/></g><g transform="translate(44.795 0)"><path d="M0,0H0Z" fill="#e7d4ff"/></g><g transform="translate(0.001 0)"><path d="M12.941,42.965H45.88L29.957-69.3h-1.11L12.941,42.965M54.763-126.384,99.557,140H59.58L51.057,79.5H7.747L-.76,140H-40L4.791-126.384Z" transform="translate(40.003 126.384)" fill="#fdfeff"/></g><g transform="translate(94.767 0)"><path d="M0,0H16.088L60.882,266.388H44.794Z" fill="#e7d4ff"/></g></g></g><g transform="translate(510.901 346.544)"><g clip-path="url(#d)"><path d="M415.675-357.486h16.088v138.523H415.675Z" transform="translate(-376.433 425.228)" fill="#e7d4ff"/><g transform="translate(39.242 206.267)"><g clip-path="url(#e)"><g transform="translate(0 -0.002)"><g clip-path="url(#f)"><g transform="translate(0 0.002)"><g clip-path="url(#e)"><g transform="translate(0 -0.001)"><path d="M0,0H16.088c0,19.778,8.507,30.438,24.056,30.438H24.056C8.509,30.438,0,19.778,0,0" fill="#e7d5ff"/></g></g></g></g></g></g></g><g transform="translate(39.242 37.304)"><g clip-path="url(#h)"><g transform="translate(0)"><g clip-path="url(#i)"><g transform="translate(0)"><g clip-path="url(#h)"><g transform="translate(0 0)"><path d="M5.88,0H21.968C6.422,0-2.088,10.645-2.088,30.438H-18.176C-18.176,10.645-9.667,0,5.88,0" transform="translate(18.176)" fill="#e7d5ff"/></g></g></g></g></g></g></g><g transform="translate(63.298 269.813)"><g clip-path="url(#k)"><g clip-path="url(#l)"><g clip-path="url(#k)"><g transform="translate(-0.001 0)"><path d="M6.243,0H22.331A76.513,76.513,0,0,1-3.21,4.181H-19.3A76.506,76.506,0,0,0,6.243,0" transform="translate(19.299)" fill="#e7d5ff"/></g></g></g></g></g><g transform="translate(115.865 206.637)"><g clip-path="url(#n)"><g clip-path="url(#o)"><g clip-path="url(#n)"><g transform="translate(0.001 -0.001)"><path d="M2.622,0H18.711c0,16.369-3.708,30.454-10.729,41.487H-8.107C-1.085,30.454,2.622,16.369,2.622,0" transform="translate(8.107)" fill="#e7d5ff"/></g></g></g></g></g><path d="M481.676-357.774h16.088v139.28H481.676Z" transform="translate(-355.082 425.131)" fill="#e7d4ff"/><g transform="translate(63.298)"><g clip-path="url(#q)"><g clip-path="url(#r)"><g clip-path="url(#q)"><g transform="translate(0 0.001)"><path d="M0,0H16.088c39.241,0,63.3,25.5,63.3,67.355H63.3C63.3,25.5,39.242,0,0,0" fill="#e7d5ff"/></g></g></g></g></g><g transform="translate(0.001 0.001)"><path d="M21.351,52.331V-86.192c0-19.794-8.509-30.438-24.056-30.438s-24.056,10.645-24.056,30.438V52.331c0,19.778,8.509,30.438,24.056,30.438S21.351,72.109,21.351,52.331M49.864,94.188c4.442,4.951,11.463,6.464,19.988,6.464l-3.708,37.3c-19.252,0-34.049-6.48-43.308-22.079A76.468,76.468,0,0,1-2.7,120.058C-41.947,120.058-66,94.573-66,52.7V-86.579c0-41.855,24.054-67.355,63.3-67.355s63.3,25.5,63.3,67.355V52.7c0,16.369-3.708,30.454-10.729,41.487" transform="translate(66.001 153.934)" fill="#fdfeff"/></g><g transform="translate(132.147 254.587)"><path d="M.906,0H16.995L13.287,37.3H-2.8Z" transform="translate(2.801)" fill="#e7d4ff"/></g><g transform="translate(115.865 248.122)"><g clip-path="url(#t)"><g clip-path="url(#u)"><g clip-path="url(#t)"><g transform="translate(0.001 0)"><path d="M0,0H16.088C20.53,4.951,27.552,6.464,36.077,6.464H19.988C11.465,6.464,4.442,4.951,0,0" fill="#e7d5ff"/></g></g></g></g></g></g></g><g transform="translate(129.388 181.964)"><path d="M60.636,10.58H-166.847a20.726,20.726,0,0,1-20.6-20.851,20.726,20.726,0,0,1,20.6-20.851H60.636a20.725,20.725,0,0,1,20.6,20.851,20.725,20.725,0,0,1-20.6,20.851" transform="translate(187.442 31.123)" fill="#feffff"/></g><g transform="translate(282.066 181.964)"><path d="M30.093,0H-62.9V41.7H30.093C42.8,41.7,53.1,32.366,53.1,20.851S42.8,0,30.093,0" transform="translate(62.896)" fill="#02b8cd"/></g><g transform="translate(138.223 190.106)"><path d="M4.445,4.672a7.449,7.449,0,0,1-10.613,0,7.677,7.677,0,0,1,0-10.745A7.4,7.4,0,0,1-.861-8.294,7.409,7.409,0,0,1,4.445-6.073a7.677,7.677,0,0,1,0,10.745m9.612,5.651L10.034,6.249A13.186,13.186,0,0,0,8.252-9.927a12.791,12.791,0,0,0-18.225,0,13.177,13.177,0,0,0,0,18.45A12.715,12.715,0,0,0-.861,12.34,12.7,12.7,0,0,0,6,10.332L10.027,14.4a2.823,2.823,0,0,0,4.032,0,2.915,2.915,0,0,0,0-4.081" transform="translate(13.742 13.742)" fill="#ffb944"/></g></g></svg>