<svg xmlns="http://www.w3.org/2000/svg" width="171.587" height="77.709" viewBox="0 0 171.587 77.709"><g transform="translate(-57.706 229.901)"><path d="M109.3-229.1c-3,1.3-3.5,5.1-3.1,21.4.2,8.9.7,14,1.5,14.8.7.7,3.7,1.4,6.7,1.7,4.5.4,5.7.1,7.5-1.7a8.008,8.008,0,0,0,2.1-5c0-2,.6-3,2-3.4,1.7-.4,2,0,2,3.4,0,5.8,2.2,6.8,15.4,6.8,6,0,11.5-.4,12.2-1,.8-.6,2.1-.6,3.8.1,4.8,1.8,12,1.2,15.7-1.3,5.1-3.4,6.9-7.8,6.9-17.2,0-12.9-4.1-18.4-14.4-19.3-4.3-.3-6.2,0-9.4,1.8-3.8,2.2-4,2.2-6.7.4-2.6-1.7-11.7-2.3-22.5-1.4-1.4.1-5.9-.1-10-.4S110.5-229.6,109.3-229.1Zm62.4,4.1c4.5,1.6,6.3,5.6,6.3,14,0,4.5-.6,8.2-1.6,10.1-3.2,6.2-13.6,7.5-18.5,2.3-2.1-2.2-2.4-3.8-2.7-11.2-.3-7.8-.1-9,1.8-11.5C160.6-225.8,165.6-227.1,171.7-225ZM128-223.2c1.6,1.3,2.4,3.2,2.7,6.8.6,6.4-2,10.1-7.8,11-3.8.6-3.9.7-3.9,5v4.4h-8v-29h7.4C124-225,126.3-224.6,128-223.2Zm23,.2c2.5,2.5,2.7,9.5.4,12.8-.8,1.2-1.3,2.5-1.1,3a39.89,39.89,0,0,1,2,5.9l1.6,5.3h-9.6l-1.5-5.3-1.6-5.2-.1,5.2L141-196h-9v-29h8.5C147.7-225,149.3-224.7,151-223Z"/><path d="M164.7-217.4c-.4.4-.7,3.8-.7,7.6,0,6.6.1,6.8,2.5,6.8,2.6,0,2.6-.1,2.3-7.2-.2-5.6-.7-7.3-1.8-7.6A3.2,3.2,0,0,0,164.7-217.4Z"/><path d="M119.2-214.5c0,4.5,2.2,4.2,2.6-.3.2-2.3-.1-3.2-1.1-3.2S119.2-216.9,119.2-214.5Z"/><path d="M141-215c0,2.1.4,3,1.3,2.7.6-.2,1.2-1.4,1.2-2.7a3.367,3.367,0,0,0-1.2-2.8C141.4-218,141-217.1,141-215Z"/><path d="M67.4-171c-3.2,1.3-7.2,6.6-8.5,11.3-1.4,5.4-.6,14.6,1.8,19.4,3.4,7,4.1,7.1,42.6,7.2,38.9,0,38.4.1,38.9-7.1.2-3.1.8-4.4,2.1-4.6,1.4-.3,1.7.4,1.7,4.2,0,6.1,2.7,8,10.2,7.2a53.046,53.046,0,0,1,6.8-.4c.8,0,14.2.2,29.7.4,27.7.3,28.3.2,31.5-2a13.086,13.086,0,0,0,5-14.8c-1.5-5-1.5-4.5-.6-12.3.8-7.5-.2-8.5-8.9-9.2-4.7-.4-7.3-.1-9.9,1.1-3.3,1.6-3.9,1.6-8.4.1-4.3-1.4-9.8-1.5-39.9-1.1-19.3.2-35.7.4-36.5.5-.8,0-4.6-.2-8.4-.5-5.9-.5-7.2-.3-9.7,1.5-2.8,2.1-3,2.1-5.6.4-2.2-1.5-5.2-1.8-17.2-2C76.1-171.8,68.6-171.5,67.4-171Zm11.4,3.6c1.6.5,2.2,1.4,2.2,3.3,0,4-1.3,5.2-5.1,4.9-3.1-.3-3.4,0-4.3,3.4a13.83,13.83,0,0,0,0,7c.9,3,1.4,3.3,4.6,3.2,2.9-.1,3.8.3,4.2,2,1.2,4.5.7,5.4-3.4,6.1-5.6.9-10.7-1-12.7-4.8-2.1-4-2.3-14.9-.4-19.5C66.1-166.9,72-169.2,78.8-167.4Zm86,3.7c-.2,2.7-.8,3.3-3,3.5l-2.8.3V-138h-9v-22h-6c-5.3,0-6,.2-6,2,0,1.6.7,2,3,2,2.8,0,3,.3,3,3.5s-.2,3.5-3,3.5c-3,0-3,.1-3,5.5v5.5h-9v-28.9l8.3-.3c4.5-.2,12.6-.2,18,0l9.8.3Zm59.8-3c.4.3.3,2.2,0,4.2-.7,3.5-.7,3.5-4.6,2.9-3.2-.5-4-.3-4,.9,0,.8,1.3,2,2.9,2.7,4.1,1.6,6.1,4.1,6.7,8.1,1,7.3-4.2,11.6-12.7,10.4-5.4-.8-6.5-2-5.5-6,.6-2.3,1-2.5,4.5-1.9,5.4.9,5.9-1,1-3.8-4-2.2-6.9-6.1-6.9-9.3,0-2.7,3-7.6,5.3-8.5C213.6-168,223.6-167.8,224.6-166.7ZM101-165c2.4,2.4,2.7,9.5.6,12.6-1.3,1.8-1.3,2.8.4,8a33.824,33.824,0,0,0,1.9,5.3c.1-.4,1.2-6.6,2.6-13.9s2.5-13.4,2.5-13.6,2.9-.4,6.4-.4h6.5l1,5.2c1.8,9.2,4.1,22,4.1,22.9,0,.5-2,.9-4.5.9-3.8,0-4.5-.3-4.5-2,0-1.5-.7-2-2.4-2a2.922,2.922,0,0,0-3.1,2c-.6,1.8-1.5,2-9.4,2H94.3l-1.5-5.3-1.6-5.2-.1,5.2L91-138H82v-29h8.5C97.7-167,99.3-166.7,101-165Zm82,1.5c0,3.4-.1,3.5-4,3.5-3.3,0-4,.3-4,1.9,0,1.5.8,2.1,3.3,2.3,2.8.3,3.2.6,3.2,3.3s-.4,3-3.2,3.3c-2.5.2-3.3.8-3.3,2.3,0,1.6.7,1.9,4,1.9,3.9,0,4,.1,4,3.5v3.5H166v-29h17Zm20-1.5c2.5,2.5,2.8,10.5.5,13-1.3,1.5-1.3,2.3.5,7.5,1.1,3.2,2,6,2,6.2a23.763,23.763,0,0,1-4.8.3h-4.7l-1.6-5.3-1.7-5.2-.1,5.2L193-138h-8v-29h8C199.7-167,201.3-166.7,203-165ZM78-151.9c0,1-.4,1.9-1,1.9-.5,0-1-1.2-1-2.6s.4-2.3,1-1.9C77.6-154.2,78-153,78-151.9Z" transform="translate(-0.505 -19.092)"/><path d="M91-157c0,2.1.4,3,1.3,2.7.6-.2,1.2-1.4,1.2-2.7a3.367,3.367,0,0,0-1.2-2.8C91.4-160,91-159.1,91-157Z" transform="translate(-2 -22.417)"/><path d="M114.7-152.6c-.7,4.1-.3,5.7,1.1,4,.5-.5.5-2.5.2-4.4l-.6-3.5Z" transform="translate(0 -25.744)"/><path d="M193.2-157.1c.1,2,.6,3.1,1.5,3.1,1,0,1.3-.9,1.1-2.7C195.4-160.5,193.1-160.9,193.2-157.1Z" transform="translate(-1 -21.079)"/></g></svg>